<mxfile host="app.diagrams.net" modified="2024-05-08T09:08:40.850Z" agent="Mozilla/5.0 (X11; Linux x86_64) AppleWebKit/537.36 (KHTML, like Gecko) Chrome/123.0.0.0 Safari/537.36" etag="pvNH_KmGVNI4uyBk9cay" version="24.2.5" type="device">
  <diagram id="C5RBs43oDa-KdzZeNtuy" name="Page-1">
    <mxGraphModel dx="650" dy="378" grid="1" gridSize="10" guides="1" tooltips="1" connect="1" arrows="1" fold="1" page="1" pageScale="1" pageWidth="827" pageHeight="1169" math="0" shadow="0">
      <root>
        <mxCell id="WIyWlLk6GJQsqaUBKTNV-0" />
        <mxCell id="WIyWlLk6GJQsqaUBKTNV-1" parent="WIyWlLk6GJQsqaUBKTNV-0" />
        <mxCell id="GLmwhQkDB5OEmv1bnG8X-130" value="" style="rounded=0;whiteSpace=wrap;html=1;fillColor=#14171C;strokeColor=none;" vertex="1" parent="WIyWlLk6GJQsqaUBKTNV-1">
          <mxGeometry x="160" y="150" width="600" height="970" as="geometry" />
        </mxCell>
        <mxCell id="GLmwhQkDB5OEmv1bnG8X-0" value="Component" style="rounded=1;whiteSpace=wrap;html=1;fillColor=#008a00;fontColor=#ffffff;strokeColor=#005700;" vertex="1" parent="WIyWlLk6GJQsqaUBKTNV-1">
          <mxGeometry x="180" y="810" width="120" height="40" as="geometry" />
        </mxCell>
        <mxCell id="GLmwhQkDB5OEmv1bnG8X-117" style="edgeStyle=orthogonalEdgeStyle;rounded=0;orthogonalLoop=1;jettySize=auto;html=1;exitX=0;exitY=0.5;exitDx=0;exitDy=0;endArrow=none;endFill=0;strokeColor=#F7F7F7;" edge="1" parent="WIyWlLk6GJQsqaUBKTNV-1" source="GLmwhQkDB5OEmv1bnG8X-1">
          <mxGeometry relative="1" as="geometry">
            <mxPoint x="410" y="959.9999999999998" as="targetPoint" />
            <Array as="points">
              <mxPoint x="410" y="1020" />
            </Array>
          </mxGeometry>
        </mxCell>
        <mxCell id="GLmwhQkDB5OEmv1bnG8X-1" value="Executable" style="rounded=1;whiteSpace=wrap;html=1;fillColor=#e3c800;fontColor=#000000;strokeColor=#B09500;" vertex="1" parent="WIyWlLk6GJQsqaUBKTNV-1">
          <mxGeometry x="420" y="1000" width="120" height="40" as="geometry" />
        </mxCell>
        <mxCell id="GLmwhQkDB5OEmv1bnG8X-2" value="Action" style="rounded=1;whiteSpace=wrap;html=1;fillColor=#a20025;fontColor=#ffffff;strokeColor=#6F0000;" vertex="1" parent="WIyWlLk6GJQsqaUBKTNV-1">
          <mxGeometry x="420" y="940" width="120" height="40" as="geometry" />
        </mxCell>
        <mxCell id="GLmwhQkDB5OEmv1bnG8X-102" style="edgeStyle=orthogonalEdgeStyle;rounded=0;orthogonalLoop=1;jettySize=auto;html=1;exitX=0.5;exitY=0;exitDx=0;exitDy=0;entryX=0.5;entryY=1;entryDx=0;entryDy=0;strokeColor=#F7F7F7;" edge="1" parent="WIyWlLk6GJQsqaUBKTNV-1" source="GLmwhQkDB5OEmv1bnG8X-3" target="GLmwhQkDB5OEmv1bnG8X-4">
          <mxGeometry relative="1" as="geometry" />
        </mxCell>
        <mxCell id="GLmwhQkDB5OEmv1bnG8X-104" style="edgeStyle=orthogonalEdgeStyle;rounded=0;orthogonalLoop=1;jettySize=auto;html=1;exitX=0;exitY=0.5;exitDx=0;exitDy=0;entryX=1;entryY=0.5;entryDx=0;entryDy=0;endArrow=block;endFill=0;strokeColor=#F7F7F7;" edge="1" parent="WIyWlLk6GJQsqaUBKTNV-1" source="GLmwhQkDB5OEmv1bnG8X-3" target="GLmwhQkDB5OEmv1bnG8X-1">
          <mxGeometry relative="1" as="geometry" />
        </mxCell>
        <mxCell id="GLmwhQkDB5OEmv1bnG8X-3" value="Task" style="rounded=1;whiteSpace=wrap;html=1;fillColor=#e51400;fontColor=#ffffff;strokeColor=#B20000;" vertex="1" parent="WIyWlLk6GJQsqaUBKTNV-1">
          <mxGeometry x="585" y="1060" width="140" height="40" as="geometry" />
        </mxCell>
        <mxCell id="GLmwhQkDB5OEmv1bnG8X-103" style="edgeStyle=orthogonalEdgeStyle;rounded=0;orthogonalLoop=1;jettySize=auto;html=1;exitX=0;exitY=0.5;exitDx=0;exitDy=0;entryX=1;entryY=0.5;entryDx=0;entryDy=0;endArrow=block;endFill=0;strokeColor=#F7F7F7;" edge="1" parent="WIyWlLk6GJQsqaUBKTNV-1" source="GLmwhQkDB5OEmv1bnG8X-4" target="GLmwhQkDB5OEmv1bnG8X-1">
          <mxGeometry relative="1" as="geometry" />
        </mxCell>
        <mxCell id="GLmwhQkDB5OEmv1bnG8X-4" value="Predictor" style="rounded=1;whiteSpace=wrap;html=1;fillColor=#fa6800;strokeColor=#C73500;fontColor=#FFFFFF;" vertex="1" parent="WIyWlLk6GJQsqaUBKTNV-1">
          <mxGeometry x="585" y="1000" width="140" height="40" as="geometry" />
        </mxCell>
        <mxCell id="GLmwhQkDB5OEmv1bnG8X-24" value="Structural Components" style="swimlane;horizontal=0;whiteSpace=wrap;html=1;fillColor=#0055FF;fontColor=#ffffff;strokeColor=#0027FF;fillStyle=auto;" vertex="1" parent="WIyWlLk6GJQsqaUBKTNV-1">
          <mxGeometry x="380" y="220" width="170" height="260" as="geometry" />
        </mxCell>
        <mxCell id="GLmwhQkDB5OEmv1bnG8X-5" value="ExecutionSchema" style="rounded=1;whiteSpace=wrap;html=1;fillColor=#008a00;fontColor=#ffffff;strokeColor=#005700;" vertex="1" parent="GLmwhQkDB5OEmv1bnG8X-24">
          <mxGeometry x="40" y="10" width="120" height="40" as="geometry" />
        </mxCell>
        <mxCell id="GLmwhQkDB5OEmv1bnG8X-26" style="edgeStyle=orthogonalEdgeStyle;rounded=0;orthogonalLoop=1;jettySize=auto;html=1;exitX=0;exitY=0.5;exitDx=0;exitDy=0;endArrow=none;endFill=0;entryX=0;entryY=0.5;entryDx=0;entryDy=0;strokeColor=#F7F7F7;" edge="1" parent="GLmwhQkDB5OEmv1bnG8X-24" source="GLmwhQkDB5OEmv1bnG8X-7" target="GLmwhQkDB5OEmv1bnG8X-5">
          <mxGeometry relative="1" as="geometry">
            <mxPoint x="30" y="30" as="targetPoint" />
            <Array as="points">
              <mxPoint x="30" y="230" />
              <mxPoint x="30" y="30" />
            </Array>
          </mxGeometry>
        </mxCell>
        <mxCell id="GLmwhQkDB5OEmv1bnG8X-92" style="edgeStyle=orthogonalEdgeStyle;rounded=0;orthogonalLoop=1;jettySize=auto;html=1;exitX=0;exitY=0.5;exitDx=0;exitDy=0;endArrow=none;endFill=0;strokeColor=#F7F7F7;" edge="1" parent="GLmwhQkDB5OEmv1bnG8X-24" source="GLmwhQkDB5OEmv1bnG8X-7">
          <mxGeometry relative="1" as="geometry">
            <mxPoint x="30" y="280" as="targetPoint" />
            <Array as="points">
              <mxPoint x="30" y="230" />
            </Array>
          </mxGeometry>
        </mxCell>
        <mxCell id="GLmwhQkDB5OEmv1bnG8X-7" value="Switch" style="rounded=1;whiteSpace=wrap;html=1;fillColor=#008a00;fontColor=#ffffff;strokeColor=#005700;" vertex="1" parent="GLmwhQkDB5OEmv1bnG8X-24">
          <mxGeometry x="40" y="210" width="120" height="40" as="geometry" />
        </mxCell>
        <mxCell id="GLmwhQkDB5OEmv1bnG8X-27" style="edgeStyle=orthogonalEdgeStyle;rounded=0;orthogonalLoop=1;jettySize=auto;html=1;exitX=0;exitY=0.5;exitDx=0;exitDy=0;endArrow=none;endFill=0;strokeColor=#F7F7F7;" edge="1" parent="GLmwhQkDB5OEmv1bnG8X-24" source="GLmwhQkDB5OEmv1bnG8X-8">
          <mxGeometry relative="1" as="geometry">
            <mxPoint x="30" y="80" as="targetPoint" />
            <Array as="points">
              <mxPoint x="30" y="130" />
            </Array>
          </mxGeometry>
        </mxCell>
        <mxCell id="GLmwhQkDB5OEmv1bnG8X-8" value="While" style="rounded=1;whiteSpace=wrap;html=1;fillColor=#008a00;fontColor=#ffffff;strokeColor=#005700;" vertex="1" parent="GLmwhQkDB5OEmv1bnG8X-24">
          <mxGeometry x="40" y="110" width="120" height="40" as="geometry" />
        </mxCell>
        <mxCell id="GLmwhQkDB5OEmv1bnG8X-28" style="edgeStyle=orthogonalEdgeStyle;rounded=0;orthogonalLoop=1;jettySize=auto;html=1;exitX=0;exitY=0.5;exitDx=0;exitDy=0;endArrow=none;endFill=0;strokeColor=#F7F7F7;" edge="1" parent="GLmwhQkDB5OEmv1bnG8X-24" source="GLmwhQkDB5OEmv1bnG8X-9">
          <mxGeometry relative="1" as="geometry">
            <mxPoint x="30" y="130" as="targetPoint" />
            <Array as="points">
              <mxPoint x="30" y="180" />
            </Array>
          </mxGeometry>
        </mxCell>
        <mxCell id="GLmwhQkDB5OEmv1bnG8X-9" value="ForEach" style="rounded=1;whiteSpace=wrap;html=1;fillColor=#008a00;fontColor=#ffffff;strokeColor=#005700;" vertex="1" parent="GLmwhQkDB5OEmv1bnG8X-24">
          <mxGeometry x="40" y="160" width="120" height="40" as="geometry" />
        </mxCell>
        <mxCell id="GLmwhQkDB5OEmv1bnG8X-29" style="edgeStyle=orthogonalEdgeStyle;rounded=0;orthogonalLoop=1;jettySize=auto;html=1;exitX=0;exitY=0.5;exitDx=0;exitDy=0;endArrow=none;endFill=0;strokeColor=#F7F7F7;" edge="1" parent="GLmwhQkDB5OEmv1bnG8X-24" source="GLmwhQkDB5OEmv1bnG8X-10">
          <mxGeometry relative="1" as="geometry">
            <mxPoint x="30" y="170" as="targetPoint" />
            <Array as="points">
              <mxPoint x="30" y="80" />
            </Array>
          </mxGeometry>
        </mxCell>
        <mxCell id="GLmwhQkDB5OEmv1bnG8X-10" value="Filter" style="rounded=1;whiteSpace=wrap;html=1;fillColor=#008a00;fontColor=#ffffff;strokeColor=#005700;" vertex="1" parent="GLmwhQkDB5OEmv1bnG8X-24">
          <mxGeometry x="40" y="60" width="120" height="40" as="geometry" />
        </mxCell>
        <mxCell id="GLmwhQkDB5OEmv1bnG8X-35" style="edgeStyle=orthogonalEdgeStyle;rounded=0;orthogonalLoop=1;jettySize=auto;html=1;exitX=0.5;exitY=0;exitDx=0;exitDy=0;entryX=0.5;entryY=1;entryDx=0;entryDy=0;strokeColor=#F7F7F7;" edge="1" parent="WIyWlLk6GJQsqaUBKTNV-1" source="GLmwhQkDB5OEmv1bnG8X-32" target="GLmwhQkDB5OEmv1bnG8X-33">
          <mxGeometry relative="1" as="geometry" />
        </mxCell>
        <mxCell id="GLmwhQkDB5OEmv1bnG8X-32" value="Branch" style="rounded=1;whiteSpace=wrap;html=1;fillColor=#647687;fontColor=#ffffff;strokeColor=#314354;" vertex="1" parent="WIyWlLk6GJQsqaUBKTNV-1">
          <mxGeometry x="585" y="430" width="80" height="40" as="geometry" />
        </mxCell>
        <mxCell id="GLmwhQkDB5OEmv1bnG8X-33" value="Condition" style="rounded=1;whiteSpace=wrap;html=1;fillColor=#647687;fontColor=#ffffff;strokeColor=#314354;" vertex="1" parent="WIyWlLk6GJQsqaUBKTNV-1">
          <mxGeometry x="585" y="330" width="80" height="40" as="geometry" />
        </mxCell>
        <mxCell id="GLmwhQkDB5OEmv1bnG8X-34" style="edgeStyle=orthogonalEdgeStyle;rounded=0;orthogonalLoop=1;jettySize=auto;html=1;exitX=1;exitY=0.5;exitDx=0;exitDy=0;entryX=0;entryY=0.5;entryDx=0;entryDy=0;strokeColor=#F7F7F7;" edge="1" parent="WIyWlLk6GJQsqaUBKTNV-1" source="GLmwhQkDB5OEmv1bnG8X-7" target="GLmwhQkDB5OEmv1bnG8X-32">
          <mxGeometry relative="1" as="geometry" />
        </mxCell>
        <mxCell id="GLmwhQkDB5OEmv1bnG8X-37" style="edgeStyle=orthogonalEdgeStyle;rounded=0;orthogonalLoop=1;jettySize=auto;html=1;exitX=1;exitY=0.5;exitDx=0;exitDy=0;entryX=0;entryY=0.5;entryDx=0;entryDy=0;strokeColor=#F7F7F7;" edge="1" parent="WIyWlLk6GJQsqaUBKTNV-1" source="GLmwhQkDB5OEmv1bnG8X-8" target="GLmwhQkDB5OEmv1bnG8X-33">
          <mxGeometry relative="1" as="geometry" />
        </mxCell>
        <mxCell id="GLmwhQkDB5OEmv1bnG8X-38" style="edgeStyle=orthogonalEdgeStyle;rounded=0;orthogonalLoop=1;jettySize=auto;html=1;exitX=1;exitY=0.5;exitDx=0;exitDy=0;entryX=0;entryY=0.5;entryDx=0;entryDy=0;strokeColor=#F7F7F7;" edge="1" parent="WIyWlLk6GJQsqaUBKTNV-1" source="GLmwhQkDB5OEmv1bnG8X-10" target="GLmwhQkDB5OEmv1bnG8X-33">
          <mxGeometry relative="1" as="geometry" />
        </mxCell>
        <mxCell id="GLmwhQkDB5OEmv1bnG8X-68" style="edgeStyle=orthogonalEdgeStyle;rounded=0;orthogonalLoop=1;jettySize=auto;html=1;exitX=1;exitY=0.5;exitDx=0;exitDy=0;entryX=0;entryY=0.5;entryDx=0;entryDy=0;strokeColor=#F7F7F7;" edge="1" parent="WIyWlLk6GJQsqaUBKTNV-1" source="GLmwhQkDB5OEmv1bnG8X-39" target="GLmwhQkDB5OEmv1bnG8X-46">
          <mxGeometry relative="1" as="geometry" />
        </mxCell>
        <mxCell id="GLmwhQkDB5OEmv1bnG8X-101" style="edgeStyle=orthogonalEdgeStyle;rounded=0;orthogonalLoop=1;jettySize=auto;html=1;exitX=0;exitY=0.5;exitDx=0;exitDy=0;endArrow=none;endFill=0;strokeColor=#F7F7F7;" edge="1" parent="WIyWlLk6GJQsqaUBKTNV-1" source="GLmwhQkDB5OEmv1bnG8X-39">
          <mxGeometry relative="1" as="geometry">
            <mxPoint x="409.9999999999998" y="250" as="targetPoint" />
            <Array as="points">
              <mxPoint x="410" y="190" />
            </Array>
          </mxGeometry>
        </mxCell>
        <mxCell id="GLmwhQkDB5OEmv1bnG8X-39" value="Evaluator" style="rounded=1;whiteSpace=wrap;html=1;fillColor=#008a00;fontColor=#ffffff;strokeColor=#005700;" vertex="1" parent="WIyWlLk6GJQsqaUBKTNV-1">
          <mxGeometry x="420" y="170" width="120" height="40" as="geometry" />
        </mxCell>
        <mxCell id="GLmwhQkDB5OEmv1bnG8X-110" style="edgeStyle=orthogonalEdgeStyle;rounded=0;orthogonalLoop=1;jettySize=auto;html=1;exitX=0;exitY=0.5;exitDx=0;exitDy=0;entryX=1;entryY=0.5;entryDx=0;entryDy=0;endArrow=block;endFill=0;strokeColor=#F7F7F7;" edge="1" parent="WIyWlLk6GJQsqaUBKTNV-1" source="GLmwhQkDB5OEmv1bnG8X-40" target="GLmwhQkDB5OEmv1bnG8X-0">
          <mxGeometry relative="1" as="geometry">
            <Array as="points">
              <mxPoint x="220" y="900" />
              <mxPoint x="220" y="860" />
              <mxPoint x="360" y="860" />
              <mxPoint x="360" y="830" />
            </Array>
          </mxGeometry>
        </mxCell>
        <mxCell id="GLmwhQkDB5OEmv1bnG8X-40" value="BaseExecutor" style="rounded=1;whiteSpace=wrap;html=1;fillColor=#6a00ff;fontColor=#ffffff;strokeColor=#3700CC;" vertex="1" parent="WIyWlLk6GJQsqaUBKTNV-1">
          <mxGeometry x="240" y="880" width="120" height="40" as="geometry" />
        </mxCell>
        <mxCell id="GLmwhQkDB5OEmv1bnG8X-45" value="Memory" style="rounded=1;whiteSpace=wrap;html=1;fillColor=#647687;fontColor=#ffffff;strokeColor=#314354;" vertex="1" parent="WIyWlLk6GJQsqaUBKTNV-1">
          <mxGeometry x="585" y="230" width="80" height="40" as="geometry" />
        </mxCell>
        <mxCell id="GLmwhQkDB5OEmv1bnG8X-69" style="edgeStyle=orthogonalEdgeStyle;rounded=0;orthogonalLoop=1;jettySize=auto;html=1;exitX=0.5;exitY=1;exitDx=0;exitDy=0;entryX=0.5;entryY=0;entryDx=0;entryDy=0;strokeColor=#F7F7F7;" edge="1" parent="WIyWlLk6GJQsqaUBKTNV-1" source="GLmwhQkDB5OEmv1bnG8X-46" target="GLmwhQkDB5OEmv1bnG8X-45">
          <mxGeometry relative="1" as="geometry" />
        </mxCell>
        <mxCell id="GLmwhQkDB5OEmv1bnG8X-46" value="MemoryManager" style="rounded=1;whiteSpace=wrap;html=1;fillColor=#647687;fontColor=#ffffff;strokeColor=#314354;" vertex="1" parent="WIyWlLk6GJQsqaUBKTNV-1">
          <mxGeometry x="570" y="170" width="110" height="40" as="geometry" />
        </mxCell>
        <mxCell id="GLmwhQkDB5OEmv1bnG8X-62" value="Memory Components" style="swimlane;horizontal=0;whiteSpace=wrap;html=1;fillColor=#d80073;fontColor=#ffffff;strokeColor=#FF0063;" vertex="1" parent="WIyWlLk6GJQsqaUBKTNV-1">
          <mxGeometry x="380" y="480" width="170" height="160" as="geometry" />
        </mxCell>
        <mxCell id="GLmwhQkDB5OEmv1bnG8X-64" style="edgeStyle=orthogonalEdgeStyle;rounded=0;orthogonalLoop=1;jettySize=auto;html=1;exitX=0;exitY=0.5;exitDx=0;exitDy=0;endArrow=none;endFill=0;strokeColor=#F7F7F7;" edge="1" parent="GLmwhQkDB5OEmv1bnG8X-62" source="GLmwhQkDB5OEmv1bnG8X-47">
          <mxGeometry relative="1" as="geometry">
            <mxPoint x="30" y="130" as="targetPoint" />
            <Array as="points">
              <mxPoint x="30" y="30" />
            </Array>
          </mxGeometry>
        </mxCell>
        <mxCell id="GLmwhQkDB5OEmv1bnG8X-91" style="edgeStyle=orthogonalEdgeStyle;rounded=0;orthogonalLoop=1;jettySize=auto;html=1;exitX=0;exitY=0.5;exitDx=0;exitDy=0;endArrow=none;endFill=0;strokeColor=#F7F7F7;" edge="1" parent="GLmwhQkDB5OEmv1bnG8X-62" source="GLmwhQkDB5OEmv1bnG8X-47">
          <mxGeometry relative="1" as="geometry">
            <mxPoint x="30" y="-20" as="targetPoint" />
            <Array as="points">
              <mxPoint x="30" y="30" />
            </Array>
          </mxGeometry>
        </mxCell>
        <mxCell id="GLmwhQkDB5OEmv1bnG8X-47" value="GetMemory" style="rounded=1;whiteSpace=wrap;html=1;fillColor=#008a00;fontColor=#ffffff;strokeColor=#005700;" vertex="1" parent="GLmwhQkDB5OEmv1bnG8X-62">
          <mxGeometry x="40" y="10" width="120" height="40" as="geometry" />
        </mxCell>
        <mxCell id="GLmwhQkDB5OEmv1bnG8X-65" style="edgeStyle=orthogonalEdgeStyle;rounded=0;orthogonalLoop=1;jettySize=auto;html=1;exitX=0;exitY=0.5;exitDx=0;exitDy=0;endArrow=none;endFill=0;strokeColor=#F7F7F7;" edge="1" parent="GLmwhQkDB5OEmv1bnG8X-62" source="GLmwhQkDB5OEmv1bnG8X-48">
          <mxGeometry relative="1" as="geometry">
            <mxPoint x="30" y="80.20000000000005" as="targetPoint" />
          </mxGeometry>
        </mxCell>
        <mxCell id="GLmwhQkDB5OEmv1bnG8X-48" value="SetMemory" style="rounded=1;whiteSpace=wrap;html=1;fillColor=#008a00;fontColor=#ffffff;strokeColor=#005700;" vertex="1" parent="GLmwhQkDB5OEmv1bnG8X-62">
          <mxGeometry x="40" y="60" width="120" height="40" as="geometry" />
        </mxCell>
        <mxCell id="GLmwhQkDB5OEmv1bnG8X-66" style="edgeStyle=orthogonalEdgeStyle;rounded=0;orthogonalLoop=1;jettySize=auto;html=1;exitX=0;exitY=0.5;exitDx=0;exitDy=0;endArrow=none;endFill=0;" edge="1" parent="GLmwhQkDB5OEmv1bnG8X-62" source="GLmwhQkDB5OEmv1bnG8X-49">
          <mxGeometry relative="1" as="geometry">
            <mxPoint x="30" y="130.09523809523807" as="targetPoint" />
          </mxGeometry>
        </mxCell>
        <mxCell id="GLmwhQkDB5OEmv1bnG8X-49" value="DeleteMemory" style="rounded=1;whiteSpace=wrap;html=1;fillColor=#008a00;fontColor=#ffffff;strokeColor=#005700;" vertex="1" parent="GLmwhQkDB5OEmv1bnG8X-62">
          <mxGeometry x="40" y="110" width="120" height="40" as="geometry" />
        </mxCell>
        <mxCell id="GLmwhQkDB5OEmv1bnG8X-30" value="Base Actions" style="swimlane;horizontal=0;whiteSpace=wrap;html=1;container=0;fillColor=#76608a;fontColor=#ffffff;strokeColor=#76608A;" vertex="1" parent="WIyWlLk6GJQsqaUBKTNV-1">
          <mxGeometry x="550" y="480" width="190" height="460" as="geometry" />
        </mxCell>
        <mxCell id="GLmwhQkDB5OEmv1bnG8X-18" value="NestToKey&lt;span style=&quot;color: rgba(0, 0, 0, 0); font-family: monospace; font-size: 0px; text-align: start; text-wrap: nowrap;&quot;&gt;%3CmxGraphModel%3E%3Croot%3E%3CmxCell%20id%3D%220%22%2F%3E%3CmxCell%20id%3D%221%22%20parent%3D%220%22%2F%3E%3CmxCell%20id%3D%222%22%20value%3D%22UnpackValue%22%20style%3D%22rounded%3D1%3BwhiteSpace%3Dwrap%3Bhtml%3D1%3B%22%20vertex%3D%221%22%20parent%3D%221%22%3E%3CmxGeometry%20x%3D%22610%22%20y%3D%22720%22%20width%3D%2290%22%20height%3D%2240%22%20as%3D%22geometry%22%2F%3E%3C%2FmxCell%3E%3C%2Froot%3E%3C%2FmxGraphModel%3E&lt;/span&gt;" style="rounded=1;whiteSpace=wrap;html=1;container=0;fillColor=#a20025;fontColor=#ffffff;strokeColor=#6F0000;" vertex="1" parent="GLmwhQkDB5OEmv1bnG8X-30">
          <mxGeometry x="40" y="410" width="140" height="40" as="geometry" />
        </mxCell>
        <mxCell id="GLmwhQkDB5OEmv1bnG8X-100" style="edgeStyle=orthogonalEdgeStyle;rounded=0;orthogonalLoop=1;jettySize=auto;html=1;exitX=0;exitY=0.5;exitDx=0;exitDy=0;entryX=0;entryY=0.5;entryDx=0;entryDy=0;endArrow=none;endFill=0;strokeColor=#F7F7F7;" edge="1" parent="GLmwhQkDB5OEmv1bnG8X-30" source="GLmwhQkDB5OEmv1bnG8X-17" target="GLmwhQkDB5OEmv1bnG8X-18">
          <mxGeometry relative="1" as="geometry">
            <Array as="points">
              <mxPoint x="30" y="380" />
              <mxPoint x="30" y="430" />
            </Array>
          </mxGeometry>
        </mxCell>
        <mxCell id="GLmwhQkDB5OEmv1bnG8X-17" value="UnpackValue" style="rounded=1;whiteSpace=wrap;html=1;container=0;fillColor=#a20025;fontColor=#ffffff;strokeColor=#6F0000;" vertex="1" parent="GLmwhQkDB5OEmv1bnG8X-30">
          <mxGeometry x="40" y="360" width="140" height="40" as="geometry" />
        </mxCell>
        <mxCell id="GLmwhQkDB5OEmv1bnG8X-99" style="edgeStyle=orthogonalEdgeStyle;rounded=0;orthogonalLoop=1;jettySize=auto;html=1;exitX=0;exitY=0.5;exitDx=0;exitDy=0;entryX=0;entryY=0.5;entryDx=0;entryDy=0;endArrow=none;endFill=0;strokeColor=#F7F7F7;" edge="1" parent="GLmwhQkDB5OEmv1bnG8X-30" source="GLmwhQkDB5OEmv1bnG8X-15" target="GLmwhQkDB5OEmv1bnG8X-17">
          <mxGeometry relative="1" as="geometry">
            <Array as="points">
              <mxPoint x="30" y="330" />
              <mxPoint x="30" y="380" />
            </Array>
          </mxGeometry>
        </mxCell>
        <mxCell id="GLmwhQkDB5OEmv1bnG8X-15" value="RenameAttributeQuery" style="rounded=1;whiteSpace=wrap;html=1;container=0;fillColor=#a20025;fontColor=#ffffff;strokeColor=#6F0000;" vertex="1" parent="GLmwhQkDB5OEmv1bnG8X-30">
          <mxGeometry x="40" y="310" width="140" height="40" as="geometry" />
        </mxCell>
        <mxCell id="GLmwhQkDB5OEmv1bnG8X-98" style="edgeStyle=orthogonalEdgeStyle;rounded=0;orthogonalLoop=1;jettySize=auto;html=1;exitX=0;exitY=0.5;exitDx=0;exitDy=0;entryX=0;entryY=0.5;entryDx=0;entryDy=0;endArrow=none;endFill=0;strokeColor=#F7F7F7;" edge="1" parent="GLmwhQkDB5OEmv1bnG8X-30" source="GLmwhQkDB5OEmv1bnG8X-14" target="GLmwhQkDB5OEmv1bnG8X-15">
          <mxGeometry relative="1" as="geometry">
            <Array as="points">
              <mxPoint x="30" y="280" />
              <mxPoint x="30" y="330" />
            </Array>
          </mxGeometry>
        </mxCell>
        <mxCell id="GLmwhQkDB5OEmv1bnG8X-14" value="RenameAttribute" style="rounded=1;whiteSpace=wrap;html=1;container=0;fillColor=#a20025;fontColor=#ffffff;strokeColor=#6F0000;" vertex="1" parent="GLmwhQkDB5OEmv1bnG8X-30">
          <mxGeometry x="40" y="260" width="140" height="40" as="geometry" />
        </mxCell>
        <mxCell id="GLmwhQkDB5OEmv1bnG8X-79" value="SetValue" style="rounded=1;whiteSpace=wrap;html=1;container=0;fillColor=#a20025;fontColor=#ffffff;strokeColor=#6F0000;" vertex="1" parent="GLmwhQkDB5OEmv1bnG8X-30">
          <mxGeometry x="40" y="160" width="140" height="40" as="geometry" />
        </mxCell>
        <mxCell id="GLmwhQkDB5OEmv1bnG8X-95" style="edgeStyle=orthogonalEdgeStyle;rounded=0;orthogonalLoop=1;jettySize=auto;html=1;exitX=0;exitY=0.5;exitDx=0;exitDy=0;entryX=0;entryY=0.5;entryDx=0;entryDy=0;endArrow=none;endFill=0;strokeColor=#F7F7F7;" edge="1" parent="GLmwhQkDB5OEmv1bnG8X-30" source="GLmwhQkDB5OEmv1bnG8X-86" target="GLmwhQkDB5OEmv1bnG8X-79">
          <mxGeometry relative="1" as="geometry">
            <Array as="points">
              <mxPoint x="30" y="130" />
              <mxPoint x="30" y="180" />
            </Array>
          </mxGeometry>
        </mxCell>
        <mxCell id="GLmwhQkDB5OEmv1bnG8X-86" value="AddData" style="rounded=1;whiteSpace=wrap;html=1;container=0;fillColor=#a20025;fontColor=#ffffff;strokeColor=#6F0000;" vertex="1" parent="GLmwhQkDB5OEmv1bnG8X-30">
          <mxGeometry x="40" y="110" width="140" height="40" as="geometry" />
        </mxCell>
        <mxCell id="GLmwhQkDB5OEmv1bnG8X-94" style="edgeStyle=orthogonalEdgeStyle;rounded=0;orthogonalLoop=1;jettySize=auto;html=1;exitX=0;exitY=0.5;exitDx=0;exitDy=0;entryX=0;entryY=0.5;entryDx=0;entryDy=0;endArrow=none;endFill=0;strokeColor=#F7F7F7;" edge="1" parent="GLmwhQkDB5OEmv1bnG8X-30" source="GLmwhQkDB5OEmv1bnG8X-87" target="GLmwhQkDB5OEmv1bnG8X-86">
          <mxGeometry relative="1" as="geometry">
            <Array as="points">
              <mxPoint x="30" y="80" />
              <mxPoint x="30" y="130" />
            </Array>
          </mxGeometry>
        </mxCell>
        <mxCell id="GLmwhQkDB5OEmv1bnG8X-87" value="Flush" style="rounded=1;whiteSpace=wrap;html=1;container=0;fillColor=#a20025;fontColor=#ffffff;strokeColor=#6F0000;" vertex="1" parent="GLmwhQkDB5OEmv1bnG8X-30">
          <mxGeometry x="40" y="60" width="140" height="40" as="geometry" />
        </mxCell>
        <mxCell id="GLmwhQkDB5OEmv1bnG8X-93" style="edgeStyle=orthogonalEdgeStyle;rounded=0;orthogonalLoop=1;jettySize=auto;html=1;exitX=0;exitY=0.5;exitDx=0;exitDy=0;entryX=0;entryY=0.5;entryDx=0;entryDy=0;endArrow=none;endFill=0;strokeColor=#F7F7F7;" edge="1" parent="GLmwhQkDB5OEmv1bnG8X-30" source="GLmwhQkDB5OEmv1bnG8X-88" target="GLmwhQkDB5OEmv1bnG8X-87">
          <mxGeometry relative="1" as="geometry">
            <Array as="points">
              <mxPoint x="30" y="30" />
              <mxPoint x="30" y="80" />
            </Array>
          </mxGeometry>
        </mxCell>
        <mxCell id="GLmwhQkDB5OEmv1bnG8X-88" value="Log" style="rounded=1;whiteSpace=wrap;html=1;container=0;fillColor=#a20025;fontColor=#ffffff;strokeColor=#6F0000;" vertex="1" parent="GLmwhQkDB5OEmv1bnG8X-30">
          <mxGeometry x="40" y="10" width="140" height="40" as="geometry" />
        </mxCell>
        <mxCell id="GLmwhQkDB5OEmv1bnG8X-97" style="edgeStyle=orthogonalEdgeStyle;rounded=0;orthogonalLoop=1;jettySize=auto;html=1;exitX=0;exitY=0.5;exitDx=0;exitDy=0;entryX=0;entryY=0.5;entryDx=0;entryDy=0;endArrow=none;endFill=0;strokeColor=#F7F7F7;" edge="1" parent="WIyWlLk6GJQsqaUBKTNV-1" source="GLmwhQkDB5OEmv1bnG8X-19" target="GLmwhQkDB5OEmv1bnG8X-14">
          <mxGeometry relative="1" as="geometry">
            <Array as="points">
              <mxPoint x="580" y="710" />
              <mxPoint x="580" y="760" />
            </Array>
          </mxGeometry>
        </mxCell>
        <mxCell id="GLmwhQkDB5OEmv1bnG8X-19" value="ExecuteFunction" style="rounded=1;whiteSpace=wrap;html=1;container=0;fillColor=#a20025;fontColor=#ffffff;strokeColor=#6F0000;" vertex="1" parent="WIyWlLk6GJQsqaUBKTNV-1">
          <mxGeometry x="590" y="690" width="140" height="40" as="geometry" />
        </mxCell>
        <mxCell id="GLmwhQkDB5OEmv1bnG8X-89" style="edgeStyle=orthogonalEdgeStyle;rounded=0;orthogonalLoop=1;jettySize=auto;html=1;exitX=1;exitY=0.5;exitDx=0;exitDy=0;entryX=0;entryY=0.5;entryDx=0;entryDy=0;strokeColor=#F7F7F7;" edge="1" parent="WIyWlLk6GJQsqaUBKTNV-1" source="GLmwhQkDB5OEmv1bnG8X-9" target="GLmwhQkDB5OEmv1bnG8X-33">
          <mxGeometry relative="1" as="geometry" />
        </mxCell>
        <mxCell id="GLmwhQkDB5OEmv1bnG8X-96" style="edgeStyle=orthogonalEdgeStyle;rounded=0;orthogonalLoop=1;jettySize=auto;html=1;exitX=0;exitY=0.5;exitDx=0;exitDy=0;entryX=0;entryY=0.5;entryDx=0;entryDy=0;endArrow=none;endFill=0;strokeColor=#F7F7F7;" edge="1" parent="WIyWlLk6GJQsqaUBKTNV-1" source="GLmwhQkDB5OEmv1bnG8X-79" target="GLmwhQkDB5OEmv1bnG8X-19">
          <mxGeometry relative="1" as="geometry">
            <Array as="points">
              <mxPoint x="580" y="660" />
              <mxPoint x="580" y="710" />
            </Array>
          </mxGeometry>
        </mxCell>
        <mxCell id="GLmwhQkDB5OEmv1bnG8X-108" style="edgeStyle=orthogonalEdgeStyle;rounded=0;orthogonalLoop=1;jettySize=auto;html=1;exitX=0.5;exitY=1;exitDx=0;exitDy=0;entryX=0.5;entryY=0;entryDx=0;entryDy=0;strokeColor=#F7F7F7;" edge="1" parent="WIyWlLk6GJQsqaUBKTNV-1" source="GLmwhQkDB5OEmv1bnG8X-105" target="GLmwhQkDB5OEmv1bnG8X-2">
          <mxGeometry relative="1" as="geometry" />
        </mxCell>
        <mxCell id="GLmwhQkDB5OEmv1bnG8X-124" style="edgeStyle=orthogonalEdgeStyle;rounded=0;orthogonalLoop=1;jettySize=auto;html=1;exitX=0;exitY=0.5;exitDx=0;exitDy=0;endArrow=block;endFill=0;" edge="1" parent="WIyWlLk6GJQsqaUBKTNV-1" source="GLmwhQkDB5OEmv1bnG8X-120">
          <mxGeometry relative="1" as="geometry">
            <mxPoint x="360" y="900" as="targetPoint" />
          </mxGeometry>
        </mxCell>
        <mxCell id="GLmwhQkDB5OEmv1bnG8X-129" style="edgeStyle=orthogonalEdgeStyle;rounded=0;orthogonalLoop=1;jettySize=auto;html=1;exitX=0;exitY=0.5;exitDx=0;exitDy=0;endArrow=block;endFill=0;strokeColor=#F7F7F7;" edge="1" parent="WIyWlLk6GJQsqaUBKTNV-1" source="GLmwhQkDB5OEmv1bnG8X-105">
          <mxGeometry relative="1" as="geometry">
            <mxPoint x="360" y="900.1428571428571" as="targetPoint" />
          </mxGeometry>
        </mxCell>
        <mxCell id="GLmwhQkDB5OEmv1bnG8X-105" value="ActionExecutor" style="rounded=1;whiteSpace=wrap;html=1;fillColor=#6a00ff;fontColor=#ffffff;strokeColor=#3700CC;" vertex="1" parent="WIyWlLk6GJQsqaUBKTNV-1">
          <mxGeometry x="420" y="880" width="120" height="40" as="geometry" />
        </mxCell>
        <mxCell id="GLmwhQkDB5OEmv1bnG8X-107" style="edgeStyle=orthogonalEdgeStyle;rounded=0;orthogonalLoop=1;jettySize=auto;html=1;exitX=0.5;exitY=0;exitDx=0;exitDy=0;entryX=0.5;entryY=1;entryDx=0;entryDy=0;strokeColor=#F7F7F7;" edge="1" parent="WIyWlLk6GJQsqaUBKTNV-1" source="GLmwhQkDB5OEmv1bnG8X-106" target="GLmwhQkDB5OEmv1bnG8X-1">
          <mxGeometry relative="1" as="geometry" />
        </mxCell>
        <mxCell id="GLmwhQkDB5OEmv1bnG8X-113" style="edgeStyle=orthogonalEdgeStyle;rounded=0;orthogonalLoop=1;jettySize=auto;html=1;exitX=0;exitY=0.5;exitDx=0;exitDy=0;entryX=1;entryY=0.5;entryDx=0;entryDy=0;endArrow=block;endFill=0;strokeColor=#F7F7F7;" edge="1" parent="WIyWlLk6GJQsqaUBKTNV-1" source="GLmwhQkDB5OEmv1bnG8X-106" target="GLmwhQkDB5OEmv1bnG8X-40">
          <mxGeometry relative="1" as="geometry" />
        </mxCell>
        <mxCell id="GLmwhQkDB5OEmv1bnG8X-106" value="ExecutableExecutor" style="rounded=1;whiteSpace=wrap;html=1;fillColor=#6a00ff;fontColor=#ffffff;strokeColor=#3700CC;" vertex="1" parent="WIyWlLk6GJQsqaUBKTNV-1">
          <mxGeometry x="420" y="1060" width="120" height="40" as="geometry" />
        </mxCell>
        <mxCell id="GLmwhQkDB5OEmv1bnG8X-116" style="edgeStyle=orthogonalEdgeStyle;rounded=0;orthogonalLoop=1;jettySize=auto;html=1;exitX=0;exitY=0.5;exitDx=0;exitDy=0;entryX=1;entryY=0.5;entryDx=0;entryDy=0;endArrow=block;endFill=0;strokeColor=#EBEBEB;" edge="1" parent="WIyWlLk6GJQsqaUBKTNV-1" source="GLmwhQkDB5OEmv1bnG8X-49" target="GLmwhQkDB5OEmv1bnG8X-0">
          <mxGeometry relative="1" as="geometry">
            <Array as="points">
              <mxPoint x="410" y="610" />
              <mxPoint x="410" y="830" />
            </Array>
          </mxGeometry>
        </mxCell>
        <mxCell id="GLmwhQkDB5OEmv1bnG8X-119" style="edgeStyle=orthogonalEdgeStyle;rounded=0;orthogonalLoop=1;jettySize=auto;html=1;exitX=0;exitY=0.5;exitDx=0;exitDy=0;entryX=1;entryY=0.5;entryDx=0;entryDy=0;endArrow=block;endFill=0;strokeColor=#F7F7F7;" edge="1" parent="WIyWlLk6GJQsqaUBKTNV-1" source="GLmwhQkDB5OEmv1bnG8X-18" target="GLmwhQkDB5OEmv1bnG8X-2">
          <mxGeometry relative="1" as="geometry">
            <Array as="points">
              <mxPoint x="580" y="910" />
              <mxPoint x="580" y="960" />
            </Array>
          </mxGeometry>
        </mxCell>
        <mxCell id="GLmwhQkDB5OEmv1bnG8X-120" value="" style="rounded=0;whiteSpace=wrap;html=1;strokeColor=none;fillColor=#14171C;" vertex="1" parent="WIyWlLk6GJQsqaUBKTNV-1">
          <mxGeometry x="404" y="895" width="10" height="10" as="geometry" />
        </mxCell>
        <mxCell id="GLmwhQkDB5OEmv1bnG8X-114" style="edgeStyle=orthogonalEdgeStyle;rounded=0;orthogonalLoop=1;jettySize=auto;html=1;exitX=0;exitY=0.5;exitDx=0;exitDy=0;entryX=1;entryY=0.5;entryDx=0;entryDy=0;endArrow=block;endFill=0;strokeColor=#F7F7F7;" edge="1" parent="WIyWlLk6GJQsqaUBKTNV-1" source="GLmwhQkDB5OEmv1bnG8X-2" target="GLmwhQkDB5OEmv1bnG8X-0">
          <mxGeometry relative="1" as="geometry">
            <Array as="points">
              <mxPoint x="410" y="960" />
              <mxPoint x="410" y="830" />
            </Array>
          </mxGeometry>
        </mxCell>
      </root>
    </mxGraphModel>
  </diagram>
</mxfile>
